#tb 0: 1/44100
#media_type 0: audio
#codec_id 0: pcm_s16le
#sample_rate 0: 44100
#channel_layout_name 0: stereo
0,          0,          0,     1024,     4096, 0x337efeb6
0,       1024,       1024,     1024,     4096, 0x5c4aea76
0,       2048,       2048,     1024,     4096, 0xec82ee33
0,       3072,       3072,     1024,     4096, 0xfe66f9df
0,       4096,       4096,     1024,     4096, 0x7291e981
0,       5120,       5120,     1024,     4096, 0x390be918
0,       6144,       6144,     1024,     4096, 0x3c6fff4f
0,       7168,       7168,     1024,     4096, 0xa46b12b7
0,       8192,       8192,     1024,     4096, 0xcbb4e329
0,       9216,       9216,     1024,     4096, 0xe66f0265
0,      10240,      10240,     1024,     4096, 0x1cffe900
0,      11264,      11264,     1024,     4096, 0xd86efd12
0,      12288,      12288,     1024,     4096, 0xa122f221
0,      13312,      13312,     1024,     4096, 0x13500181
0,      14336,      14336,     1024,     4096, 0x4d9a0bd7
0,      15360,      15360,     1024,     4096, 0xa3620ba4
0,      16384,      16384,     1024,     4096, 0x60e8e816
0,      17408,      17408,     1024,     4096, 0xea75e8a5
0,      18432,      18432,     1024,     4096, 0xc6c2f1a5
0,      19456,      19456,     1024,     4096, 0xa83aebaa
